<?xml version="1.0" encoding="utf-8"?>
<!-- Generator: Adobe Illustrator 24.0.1, SVG Export Plug-In . SVG Version: 6.00 Build 0)  -->
<svg version="1.1" id="Layer_1" xmlns="http://www.w3.org/2000/svg" xmlns:xlink="http://www.w3.org/1999/xlink" x="0px" y="0px"
	 viewBox="0 0 512 512" style="enable-background:new 0 0 512 512;" xml:space="preserve">
<style type="text/css">
	.st0{fill:#FFFFFF;}
</style>
<g>
	<g>
		<path class="st0" d="M406,246L406,246c-5.5,0-10,4.5-10,10l0,0c0,5.5,4.5,10,10,10l0,0c5.5,0,10-4.5,10-10l0,0
			C416,250.5,411.5,246,406,246z"/>
		<path class="st0" d="M377.2,186L377.2,186c2.8,4.8,8.9,6.4,13.7,3.7l0,0c4.8-2.8,6.4-8.9,3.7-13.7l0,0c-2.8-4.8-8.9-6.4-13.7-3.7
			l0,0C376.1,175.1,374.5,181.2,377.2,186z"/>
		<path class="st0" d="M380.9,339.7L380.9,339.7c4.8,2.8,10.9,1.1,13.7-3.7l0,0c2.8-4.8,1.1-10.9-3.7-13.7l0,0
			c-4.8-2.8-10.9-1.1-13.7,3.7l0,0C374.5,330.8,376.1,336.9,380.9,339.7z"/>
		<path class="st0" d="M322.3,121.1L322.3,121.1c-2.8,4.8-1.1,10.9,3.7,13.7l0,0c4.8,2.8,10.9,1.1,13.7-3.7l0,0
			c2.8-4.8,1.1-10.9-3.7-13.7l0,0C331.2,114.7,325.1,116.3,322.3,121.1z"/>
		<path class="st0" d="M322.3,390.9L322.3,390.9c2.8,4.8,8.9,6.4,13.7,3.7l0,0c4.8-2.8,6.4-8.9,3.7-13.7l0,0
			c-2.8-4.8-8.9-6.4-13.7-3.7l0,0C321.2,380,319.6,386.1,322.3,390.9z"/>
		<path class="st0" d="M256,416L256,416c5.5,0,10-4.5,10-10l0,0c0-5.5-4.5-10-10-10l0,0c-5.5,0-10,4.5-10,10l0,0
			C246,411.5,250.5,416,256,416z"/>
		<path class="st0" d="M256,96L256,96c-5.5,0-10,4.5-10,10l0,0c0,5.5,4.5,10,10,10l0,0c5.5,0,10-4.5,10-10l0,0
			C266,100.5,261.5,96,256,96z"/>
		<path class="st0" d="M251,74.7c4.8,2.8,10.9,1.1,13.7-3.7c2.7-4.7,1.2-10.9-3.7-13.7c-4.8-2.8-10.9-1.1-13.7,3.7
			C244.6,65.8,246.3,71.9,251,74.7z"/>
		<path class="st0" d="M189.7,121.1L189.7,121.1c-2.8-4.8-8.9-6.4-13.7-3.7l0,0c-4.8,2.8-6.4,8.9-3.7,13.7l0,0
			c2.8,4.8,8.9,6.4,13.7,3.7l0,0C190.8,132,192.4,125.9,189.7,121.1z"/>
		<path class="st0" d="M189.7,390.9L189.7,390.9c2.8-4.8,1.1-10.9-3.7-13.7l0,0c-4.8-2.8-10.9-1.1-13.7,3.7l0,0
			c-2.8,4.8-1.1,10.9,3.7,13.7l0,0C180.8,397.3,186.9,395.7,189.7,390.9z"/>
		<path class="st0" d="M131.1,172.3L131.1,172.3c-4.8-2.8-10.9-1.1-13.7,3.7l0,0c-2.8,4.8-1.1,10.9,3.7,13.7l0,0
			c4.8,2.8,10.9,1.1,13.7-3.7l0,0C137.5,181.2,135.9,175.1,131.1,172.3z"/>
		<path class="st0" d="M134.8,326L134.8,326c-2.8-4.8-8.9-6.4-13.7-3.7l0,0c-4.8,2.8-6.4,8.9-3.7,13.7l0,0c2.8,4.8,8.9,6.4,13.7,3.7
			l0,0C135.9,336.9,137.5,330.8,134.8,326z"/>
		<path class="st0" d="M106,266L106,266c5.5,0,10-4.5,10-10l0,0c0-5.5-4.5-10-10-10l0,0c-5.5,0-10,4.5-10,10l0,0
			C96,261.5,100.5,266,106,266z"/>
		<path class="st0" d="M256,0C118,0,0,117.8,0,256c0,138,117.8,256,256,256c138,0,256-117.8,256-256C512,118,394.2,0,256,0z
			 M256,492C128.1,492,20,383.9,20,256S128.1,20,256,20s236,108.1,236,236S383.9,492,256,492z"/>
		<path class="st0" d="M297.9,60.4c-5.4-1.2-10.7,2.3-11.9,7.7s2.3,10.7,7.7,11.9C377,97.8,436,170.7,436,256
			c0,98.8-81.9,181.1-182.3,180C156.4,434.8,76,354,76,256c0-85.2,58.9-158.2,142.3-176c5.4-1.2,8.8-6.5,7.7-11.9
			c-1.2-5.4-6.5-8.8-11.9-7.7C122.4,80,56,161.7,56,256c0,109.1,88.4,200,200,200c109.1,0,200-88.4,200-200
			C456,160.6,388.6,79.8,297.9,60.4z"/>
		<path class="st0" d="M136,256c0,66.2,53.8,120,120,120s120-53.8,120-120s-53.8-120-120-120S136,189.8,136,256z M356,256
			c0,55.1-44.9,100-100,100s-100-44.9-100-100s44.9-100,100-100S356,200.9,356,256z"/>
		<path class="st0" d="M256,175.3c-5.1,0-9.4,3.8-9.9,8.9c-3.6,32.3-29.2,58.3-61.9,61.9c-5.1,0.6-8.9,4.8-8.9,9.9
			c0,5.1,3.8,9.4,8.9,9.9c37.8,4.2,58.8,34.7,61.9,61.9c0.6,5.1,4.8,8.9,9.9,8.9c0,0,0,0,0,0c5.1,0,9.4-3.8,9.9-8.9
			c3.6-32.4,29.2-58.3,61.9-61.9c5.1-0.6,8.9-4.8,8.9-9.9c0-5.1-3.8-9.4-8.9-9.9c-32.8-3.6-58.2-29.1-61.9-61.9
			C265.4,179.1,261.1,175.3,256,175.3C256,175.3,256,175.3,256,175.3z M293.4,256c-15.7,8.3-28.9,21.2-37.6,37.7
			c-8.4-16.3-20.6-29.5-36.8-37.9c15.8-8.5,28.6-21.3,37-37.2C264.2,234.2,277,247.3,293.4,256z"/>
	</g>
</g>
</svg>
