<?xml version="1.0" encoding="utf-8"?>
<!-- Generator: Adobe Illustrator 24.0.1, SVG Export Plug-In . SVG Version: 6.00 Build 0)  -->
<svg version="1.1" id="Layer_1" xmlns="http://www.w3.org/2000/svg" xmlns:xlink="http://www.w3.org/1999/xlink" x="0px" y="0px"
	 viewBox="0 0 512 512" style="enable-background:new 0 0 512 512;" xml:space="preserve">
<style type="text/css">
	.st0{fill:#FFFFFF;}
</style>
<g>
	<g>
		<path class="st0" d="M441.1,284.8c-21.3-33.1-51-59.9-86-77.7c-3.2-18.4,4.5-37.4,13.3-59.1c3.7-9.2,7.5-18.5,10.6-28.1h57
			c5.5,0,10-4.5,10-10V90c0-49.6-40.4-90-90-90h-43.4c-4.2,0-8,2.7-9.4,6.7c-7,19.9-26,33.3-47.2,33.3s-40.1-13.4-47.2-33.3
			c-1.4-4-5.2-6.7-9.4-6.7H156c-49.6,0-90,40.4-90,90v20c0,5.5,4.5,10,10,10h57c3.1,9.6,6.9,18.9,10.6,28.1
			c8.8,21.7,16.5,40.6,13.3,59.1c-9,4.6-17.7,9.8-26,15.5c-4.5,3.2-5.7,9.4-2.5,13.9c1.9,2.8,5.1,4.3,8.2,4.3c2,0,4-0.6,5.7-1.8
			c7.5-5.2,15.3-9.9,23.4-14l75.4,35c-15,19.9-41.8,41-71.4,55.9c-36.2,18.1-72,25.2-102.2,20.3c4.3-12.1,9.8-23.8,16.5-34.9
			c2.8-4.7,1.3-10.9-3.5-13.7c-4.7-2.8-10.9-1.3-13.7,3.5c-20.3,33.9-31,72.7-31,112.3V462c0,4.1,2.5,7.8,6.4,9.3
			C112,498.3,183.9,512,256,512c72.1,0,144-13.7,213.6-40.7c3.9-1.5,6.4-5.2,6.4-9.3v-58.5C476,361.3,463.9,320.3,441.1,284.8
			L441.1,284.8z M444.2,336.4c-63.9,10.3-142.7-35-173.4-76.2l75.5-35.1C392.4,248.6,427.1,289,444.2,336.4L444.2,336.4z
			 M163.2,341.1c4.7,4.5,10.5,7.7,16.8,9.4c2.7,10,9.2,18.5,18.4,23.8c9.1,5.3,19.8,6.6,29.8,4c7.3,7.3,17.3,11.4,27.8,11.4
			s20.5-4.2,27.8-11.4c10,2.6,20.7,1.3,29.8-4c9.1-5.3,15.7-13.9,18.4-23.8c6.3-1.7,12-4.9,16.8-9.4c8.6,3.6,17.2,6.7,25.7,9.1
			c-0.5,3.8-1.8,7.6-3.7,11c-5,8.7-14.1,14.3-24.2,14.9c-5,0.3-9.1,4.3-9.4,9.4c-0.6,10.1-6.2,19.1-14.9,24.2
			c-8.7,5-19.4,5.4-28.4,0.9c-4.5-2.3-10-0.8-12.8,3.4c-5.6,8.4-14.9,13.5-25,13.5s-19.4-5-25-13.5c-2.8-4.2-8.3-5.7-12.8-3.4
			c-9.1,4.5-19.7,4.2-28.4-0.9c-8.7-5-14.3-14.1-14.9-24.2c-0.3-5-4.3-9.1-9.4-9.4c-10.1-0.6-19.1-6.2-24.2-14.9
			c-2-3.4-3.2-7.1-3.7-11C146,347.8,154.6,344.7,163.2,341.1L163.2,341.1z M349.9,140.6c-8.9,21.9-18,44.4-14.8,67.7l-69,32.1V119.2
			c32-4.8,56.6-32.5,56.6-65.8V20h19.1C380,66.5,365.4,102.5,349.9,140.6L349.9,140.6z M426,90v10h-41.9c1-5.6,1.7-11.4,1.8-17.4
			c0.6-21.4-5.6-41.8-18.7-61.7C400.5,26.3,426,55.2,426,90z M256,60c17.6,0,34-6.6,46.6-17.8v11.2c0,25.7-20.9,46.6-46.6,46.6
			c-25.7,0-46.6-20.9-46.6-46.6V42.2C222,53.4,238.4,60,256,60z M86,100V90c0-34.8,25.5-63.7,58.8-69.1
			c-13.1,20-19.2,40.3-18.7,61.7c0.2,5.9,0.8,11.7,1.8,17.4H86z M170.3,20h19.1v33.4c0,33.3,24.6,61,56.6,65.8v121.1l-69-32.1
			c3.2-23.3-6-45.8-14.8-67.7C146.6,102.5,132,66.5,170.3,20z M256,273.7c16.1,20.7,42.1,41.6,71.6,57.3c-1.5,0.5-3.1,0.8-4.8,0.9
			c-5,0.3-9.1,4.3-9.4,9.4c-0.4,6.6-4.1,12.5-9.8,15.8c-5.7,3.3-12.6,3.5-18.5,0.6c-4.5-2.3-10-0.8-12.8,3.4
			c-3.6,5.5-9.7,8.8-16.3,8.8c-6.6,0-12.7-3.3-16.3-8.8c-2.8-4.2-8.3-5.7-12.8-3.4c-5.9,2.9-12.8,2.7-18.5-0.6
			c-5.7-3.3-9.3-9.2-9.8-15.8c-0.3-5-4.3-9.1-9.4-9.4c-1.6-0.1-3.2-0.4-4.8-0.9C213.9,315.3,239.9,294.4,256,273.7z M456,455.1
			C390.7,479.6,323.4,492,256,492s-134.7-12.4-200-36.9v-51.7c0-16.2,2-32.2,5.8-47.8c8,1.5,16.4,2.2,25,2.2c10.1,0,20.5-1,31.1-3
			c1,5.7,3,11.3,6,16.4c7,12.2,18.7,20.6,32.1,23.7c3.1,13.4,11.6,25.1,23.7,32.1c12.1,7,26.5,8.6,39.6,4.5
			c9.4,10.1,22.6,15.9,36.6,15.9c14,0,27.2-5.8,36.6-15.9c13.2,4,27.5,2.5,39.6-4.5c12.2-7,20.6-18.7,23.7-32.1
			c13.4-3.1,25.1-11.6,32.1-23.7c3-5.1,4.9-10.6,5.9-16.4c19.7,3.6,38.7,3.9,56.1,0.8c3.9,15.5,5.9,31.5,5.9,47.8V455.1z"/>
		<path class="st0" d="M112.6,260.4c0-5.5-4.5-10-10-10h0c-5.5,0-10,4.5-10,10c0,5.5,4.5,10,10,10S112.6,265.9,112.6,260.4z"/>
	</g>
</g>
</svg>
