<?xml version="1.0" encoding="utf-8"?>
<!-- Generator: Adobe Illustrator 24.0.1, SVG Export Plug-In . SVG Version: 6.00 Build 0)  -->
<svg version="1.1" id="Capa_1" xmlns="http://www.w3.org/2000/svg" xmlns:xlink="http://www.w3.org/1999/xlink" x="0px" y="0px"
	 viewBox="0 0 512 512" style="enable-background:new 0 0 512 512;" xml:space="preserve">
<style type="text/css">
	.st0{fill:#FFFFFF;}
</style>
<g>
	<path class="st0" d="M503,346v-65.3c0-11.9-3.6-23.4-10.5-33.2l-2.3-3.3c-0.6-0.9-0.9-1.9-0.9-3v-79.5c0-11.4-9.3-20.6-20.6-20.6
		h-14.2c-4.1,0-7.5,3.4-7.5,7.5c0,4.1,3.4,7.5,7.5,7.5h14.2c3.1,0,5.6,2.5,5.6,5.6v79.5c0,4.2,1.3,8.2,3.7,11.6l2.3,3.3
		c5.1,7.2,7.8,15.8,7.8,24.6v60.8H133.3l-33.8-7.4l30.4-39.5l9.9-2.7l4.9,11.2c1.2,2.8,4,4.5,6.9,4.5c1,0,2-0.2,3-0.6
		c3.8-1.7,5.5-6.1,3.9-9.9l-4-9.2l21.3-5.8l6.2,12c1.3,2.6,4,4.1,6.7,4.1c1.2,0,2.3-0.3,3.4-0.8c3.7-1.9,5.1-6.4,3.2-10.1l-4.7-9.1
		l23.7-6.4l6.5,9.6c1.5,2.1,3.8,3.3,6.2,3.3c1.4,0,2.9-0.4,4.2-1.3c3.4-2.3,4.3-7,2-10.4l-3.6-5.3l21.4-5.8l5.2,8.5
		c1.4,2.3,3.9,3.6,6.4,3.6c1.3,0,2.7-0.4,3.9-1.1c3.5-2.2,4.7-6.8,2.5-10.3l-2.9-4.8l20.6-5.6c0.6-0.2,1.2-0.4,1.8-0.6l4.3,6.6
		c1.4,2.2,3.8,3.4,6.3,3.4c1.4,0,2.8-0.4,4.1-1.2c3.5-2.3,4.4-6.9,2.2-10.4l-4-6.2c0.6-0.6,1.1-1.1,1.7-1.7l14.8-16.5l7,11
		c1.4,2.2,3.9,3.5,6.3,3.5c1.4,0,2.8-0.4,4-1.2c3.5-2.2,4.5-6.9,2.3-10.4l-9.3-14.6l14.5-16.2l5.1,7.5c1.4,2.1,3.8,3.3,6.2,3.3
		c1.4,0,2.9-0.4,4.2-1.3c3.4-2.3,4.3-7,2-10.4l-7.2-10.6l13.7-15.3l1.9,2.8c1.5,2.1,3.8,3.3,6.2,3.3c1.5,0,2.9-0.4,4.2-1.3
		c3.4-2.3,4.3-7,2-10.4l-4-5.9l0.3-0.4c1.7-1.9,4.2-3,6.7-3h38.5c4.1,0,7.5-3.4,7.5-7.5c0-4.1-3.4-7.5-7.5-7.5h-15.8
		c-0.9-18.6-11.2-35.7-27.3-45.2l-2.2-1.3c-6.3-3.7-14.4-2.4-19.2,3.2l-98.2,114.6l-136.1,68.2H86.3c-4.1,0-7.5,3.4-7.5,7.5
		c0,4.1,3.4,7.5,7.5,7.5h23.9l-26.9,35L15.9,316c3.2-11.7,13.9-20.4,26.5-20.4h11.8c4.1,0,7.5-3.4,7.5-7.5c0-4.1-3.4-7.5-7.5-7.5
		H42.5C19.1,280.7,0,299.7,0,323.2v40.4c0,12,8.1,22.6,19.7,25.7l108.5,29.2c2.2,0.6,4.5,0.9,6.8,0.9h354.7
		c12.3,0,22.3-10,22.3-22.3v-33.2C512,356.6,508.5,350.1,503,346L503,346z M195.8,261.3l8.4-4.2l1.1,1.6L195.8,261.3z M220.5,254.6
		l-2.9-4.3l20.1-10.1l5,8.3L220.5,254.6z M292.8,231l-12.6-19.2l16.5-19.2l12.7,20L292.8,231z M319.7,200.9l-12.9-20.3l13.5-15.7
		l13.6,20.2L319.7,200.9z M344.3,173.5L330.5,153l13.3-15.5l14.1,20.8L344.3,173.5z M369.4,107.6c0.1-0.1,0.2-0.1,0.2,0l2.2,1.3
		c11.6,6.8,19,19,19.9,32.3H384c-5.8,0-11.3,2.1-15.7,5.8l-14.4-21.2L369.4,107.6z M267.9,225.2c0.8-0.4,1.5-0.9,2.1-1.6l9.8,14.9
		l-21.9,6l-6.6-10.9L267.9,225.2z M15,363.6v-32.4l110,24v47.1L23.6,374.8C18.5,373.5,15,368.8,15,363.6z M489.7,404.5H140V388
		h287.9c4.1,0,7.5-3.4,7.5-7.5s-3.4-7.5-7.5-7.5H140v-16.4h349.6c4,0,7.3,3.3,7.3,7.3v9.1h-37.1c-4.1,0-7.5,3.4-7.5,7.5
		s3.4,7.5,7.5,7.5H497v9.1C497,401.2,493.7,404.5,489.7,404.5L489.7,404.5z"/>
	<path class="st0" d="M390.8,246.6l-1.1,3.5H386c-6,0-11.2,3.8-13,9.5c-1.8,5.7,0.2,11.8,5,15.3l3,2.2l-1.1,3.5
		c-1.8,5.7,0.2,11.8,5,15.3c2.4,1.8,5.2,2.6,8.1,2.6c2.8,0,5.6-0.9,8.1-2.6l3-2.2l3,2.2c4.8,3.5,11.3,3.5,16.1,0
		c4.8-3.5,6.8-9.7,5-15.3l-1.1-3.5l3-2.2c4.8-3.5,6.8-9.7,5-15.3c-1.8-5.7-7.1-9.5-13-9.5h-3.7l-1.1-3.5c-1.8-5.7-7.1-9.5-13-9.5
		S392.7,241,390.8,246.6L390.8,246.6z M417.1,265.1h0.6l-0.5,0.4c-4.8,3.5-6.8,9.7-5,15.3l0.2,0.6l-0.5-0.4
		c-2.4-1.8-5.2-2.6-8.1-2.6c-2.8,0-5.6,0.9-8.1,2.6l-0.5,0.4l0.2-0.6c1.8-5.7-0.2-11.8-5-15.3l-0.5-0.4h0.6c6,0,11.2-3.8,13-9.5
		l0.2-0.6l0.2,0.6C405.9,261.3,411.2,265.1,417.1,265.1L417.1,265.1z"/>
	<path class="st0" d="M345.8,267.9c0,32,26,58.1,58.1,58.1s58.1-26,58.1-58.1s-26-58.1-58.1-58.1S345.8,235.8,345.8,267.9z
		 M446.9,267.9c0,23.7-19.3,43.1-43.1,43.1c-23.7,0-43.1-19.3-43.1-43.1c0-23.7,19.3-43.1,43.1-43.1
		C427.6,224.8,446.9,244.1,446.9,267.9z"/>
	<path class="st0" d="M318.4,307h-6.5c-4.1,0-7.5,3.4-7.5,7.5s3.4,7.5,7.5,7.5h6.5c4.1,0,7.5-3.4,7.5-7.5S322.5,307,318.4,307z"/>
	<path class="st0" d="M270.8,307c-4.1,0-7.5,3.4-7.5,7.5s3.4,7.5,7.5,7.5h6.5c4.1,0,7.5-3.4,7.5-7.5s-3.4-7.5-7.5-7.5H270.8z"/>
</g>
</svg>
